<svg width="400" height="400" viewBox="0 0 400 400" fill="none" xmlns="http://www.w3.org/2000/svg">
<g clip-path="url(#clip0_2441_69769)">
<g clip-path="url(#clip1_2441_69769)">
<path d="M32 16.0002H16V32.0005H32V16.0002Z" fill="black"></path>
<path d="M384 16.0002H368V32.0005H384V16.0002Z" fill="black"></path>
<path d="M400 32.0061H384V384.011H400V32.0061Z" fill="black"></path>
<path d="M16 32.0061H0V384.011H16V32.0061Z" fill="black"></path>
<path d="M272 336.005H128V352.005H272V336.005Z" fill="black"></path>
<path d="M272 272.004H128V288.004H272V272.004Z" fill="black"></path>
<path d="M320 208.003H80V224.003H320V208.003Z" fill="black"></path>
<path d="M32 0V16.0002H64.0057H64V144.002H80V160.002H128V16.0002H320.006H320V160.002H128.514V176.003H336V16.0002H368V0H32ZM80 144.002V16.0002H112.006V144.002H80.0057H80Z" fill="black"></path>
<path d="M272 48.0007H224H208V112.007V128.008H288V48.0007H272ZM272 112.002H224V64.001H272V112.002Z" fill="black"></path>
<path d="M336 384V224.003H320V384H80V224.003H64V384H16V400H384V384H336Z" fill="black"></path>
</g>
</g>
<defs>
<clipPath id="clip0_2441_69769">
<rect width="400" height="400" fill="white"></rect>
</clipPath>
<clipPath id="clip1_2441_69769">
<rect width="400" height="400" fill="white"></rect>
</clipPath>
</defs>
</svg>
